<svg xmlns="http://www.w3.org/2000/svg" width="91.13" height="82.86" viewBox="0 0 91.13 82.86">
	<style type="text/css">
		.st0{fill:#000000;}
	</style>
	<path class="st0" d="M81.52,41.16L9.52,41.16C6.48,41.16 4.02,38.69 4.02,35.66C4.02,32.62 6.48,30.16 9.52,30.16L81.52,30.16C84.56,30.16 87.02,32.62 87.02,35.66C87.02,38.69 84.56,41.16 81.52,41.16M72.79,72.58C71.98,76.24 68.74,78.86 64.98,78.86L26.06,78.86C22.31,78.86 19.06,76.24 18.25,72.58L12.25,45.17L78.81,45.17ZM81.52,26.16L68.77,26.16L58.77,1.16C58.31,0.15 57.12,-0.27 56.12,0.18C55.19,0.61 54.73,1.67 55.06,2.64L64.46,26.2L26.58,26.2L35.98,2.64C36.34,1.59 35.77,0.46 34.73,0.1C33.76,-0.22 32.7,0.23 32.27,1.16L22.27,26.16L9.52,26.16C4.28,26.14 0.02,30.37 0,35.61C-0.01,40.33 3.44,44.35 8.11,45.04L14.35,73.43C15.58,78.91 20.44,82.82 26.06,82.86L64.98,82.86C70.61,82.83 75.47,78.92 76.7,73.44L82.94,45.05C88.13,44.33 91.76,39.54 91.04,34.35C90.39,29.61 86.31,26.1 81.52,26.16"/>
	<path class="st0" d="M45.52,74.95C46.63,74.95 47.52,74.05 47.52,72.95L47.52,52.7C47.52,51.59 46.63,50.7 45.52,50.7C44.42,50.7 43.52,51.59 43.52,52.7L43.52,72.95C43.52,74.05 44.42,74.95 45.52,74.95"/>
	<path class="st0" d="M57.52,74.95C58.63,74.95 59.52,74.05 59.52,72.95L59.52,52.7C59.52,51.59 58.63,50.7 57.52,50.7C56.42,50.7 55.52,51.59 55.52,52.7L55.52,72.95C55.52,74.05 56.42,74.95 57.52,74.95"/>
	<path class="st0" d="M33.52,74.95C34.63,74.95 35.52,74.05 35.52,72.95L35.52,52.7C35.52,51.59 34.63,50.7 33.52,50.7C32.42,50.7 31.52,51.59 31.52,52.7L31.52,72.95C31.52,74.05 32.42,74.95 33.52,74.95"/>
</svg>