<svg xmlns="http://www.w3.org/2000/svg" width="34" height="21" viewBox="0 0 512 311.11">
	<style type="text/css">
		.st0{fill:#80DAD5;}
	</style>
	<path class="st0" d="M55.04,26.81L456.61,26.26L256.01,165.7ZM340.84,192.02L459.81,284.29L51.84,284.85L171.54,192.02C177.26,187.58 178.3,179.35 173.86,173.62C169.42,167.9 161.19,166.86 155.46,171.3L26.56,271.27L26.24,38.79L248.58,192.45C250.82,194 253.43,194.77 256.04,194.77C258.65,194.77 261.27,193.99 263.52,192.43L485.43,38.16L485.77,271.23L356.91,171.3C351.19,166.86 342.95,167.9 338.51,173.62C334.08,179.35 335.12,187.58 340.84,192.02M511.64,26.18C511.62,11.74 499.86,0 485.41,0L485.38,0L26.19,0.63C19.18,0.64 12.6,3.37 7.65,8.33C2.7,13.29 0,19.88 0,26.89L0.35,284.92C0.36,291.92 3.1,298.5 8.06,303.45C13.01,308.39 19.58,311.11 26.58,311.11L26.61,311.11L485.81,310.48C500.26,310.46 512.01,298.68 512,284.21Z"/>
</svg>