<svg xmlns="http://www.w3.org/2000/svg" width="56" height="57" viewBox="0 0 87.99 88.02">
	<style type="text/css">
		.st0{fill:#FD9B00;}
	</style>
	<path class="st0" d="M57.36,27.08L54.45,24.36L42.13,37.5L41.46,38.21L40.74,37.57L34.67,32.17L32,35.14L40.25,42.48L41.71,43.77L43.05,42.35Z"/>
	<path class="st0" d="M43.99,54.01C32.42,54.01 22.99,44.58 22.99,33.01C22.99,21.43 32.42,12.01 43.99,12.01C55.57,12.01 64.99,21.43 64.99,33.01C64.99,44.58 55.57,54.01 43.99,54.01M66.99,33.01C66.99,20.32 56.68,10.01 43.99,10.01C31.31,10.01 20.99,20.32 20.99,33.01C20.99,45.69 31.31,56.01 43.99,56.01C56.68,56.01 66.99,45.69 66.99,33.01"/>
	<path class="st0" d="M82.58,74.08L72.21,72.02C72.12,72 72.05,71.99 71.98,71.99C71.54,71.99 71.14,72.29 71.02,72.72L68.3,82.28L67.67,84.5L66.48,82.52L55.95,64.99L55.29,63.89L56.52,63.52C56.74,63.45 56.94,63.31 57.07,63.11L60.31,58.15L60.55,57.79L60.96,57.71L66.77,56.59C67.19,56.51 67.5,56.2 67.58,55.79L68.33,51.97L68.81,49.53L70.15,51.62L83.62,72.56L84.89,74.54ZM49.82,60.17C49.75,60.16 49.68,60.15 49.61,60.15C49.4,60.15 49.2,60.21 49.03,60.33L44.56,63.39L44,63.78L43.43,63.39L38.96,60.33C38.79,60.21 38.59,60.15 38.39,60.15C38.31,60.15 38.24,60.16 38.17,60.17L32.89,61.3L32.22,61.44L31.85,60.87L28.88,56.34C28.73,56.1 28.49,55.95 28.22,55.9L22.87,54.9L22.2,54.77L22.07,54.1L21.07,48.75C21.02,48.48 20.87,48.24 20.64,48.09L16.1,45.12L15.53,44.75L15.67,44.08L16.8,38.83C16.86,38.56 16.8,38.27 16.64,38.05L13.58,33.57L13.19,33.01L13.58,32.44L16.64,27.97C16.8,27.74 16.86,27.46 16.8,27.19L15.67,21.9L15.53,21.23L16.1,20.86L20.63,17.89C20.87,17.74 21.02,17.5 21.07,17.23L22.07,11.88L22.2,11.21L22.87,11.09L28.22,10.09C28.49,10.04 28.73,9.88 28.88,9.65L31.85,5.11L32.22,4.54L32.89,4.68L38.17,5.81C38.24,5.82 38.31,5.83 38.39,5.83C38.59,5.83 38.79,5.77 38.96,5.65L43.43,2.59L44,2.2L44.56,2.59L49.03,5.65C49.2,5.77 49.4,5.83 49.61,5.83C49.68,5.83 49.75,5.82 49.82,5.81L55.07,4.68L55.74,4.54L56.11,5.11L59.08,9.65C59.23,9.88 59.47,10.04 59.74,10.09L65.09,11.09L65.76,11.21L65.88,11.88L66.88,17.23C66.93,17.5 67.09,17.74 67.32,17.89L71.86,20.86L72.43,21.23L72.29,21.9L71.16,27.18C71.1,27.46 71.16,27.74 71.32,27.97L74.38,32.44L74.77,33.01L74.38,33.57L71.32,38.04C71.16,38.27 71.1,38.56 71.16,38.83L72.29,44.08L72.43,44.75L71.86,45.12L67.32,48.09C67.09,48.24 66.93,48.48 66.88,48.75L65.88,54.1L65.76,54.77L65.09,54.9L59.74,55.9C59.47,55.95 59.23,56.1 59.08,56.33L56.11,60.87L55.74,61.44L55.07,61.3ZM32.01,64.99L21.51,82.52L20.32,84.5L19.69,82.28L16.97,72.72C16.85,72.29 16.45,71.99 16.01,71.99C15.94,71.99 15.87,72 15.8,72.01L5.41,74.08L3.1,74.54L4.37,72.56L17.84,51.65L19.2,49.55L19.67,52.01L20.38,55.79C20.46,56.2 20.77,56.51 21.18,56.59L27,57.71L27.41,57.79L27.64,58.15L30.89,63.11C31.02,63.31 31.21,63.45 31.44,63.52L32.67,63.89ZM87.84,75.45L71.03,49.26L70.49,48.43L71.32,47.89L74.11,46.07C74.44,45.85 74.61,45.44 74.52,45.03L73.33,39.24L73.24,38.83L73.48,38.48L76.79,33.57C77.03,33.23 77.03,32.79 76.79,32.44L73.48,27.53L73.24,27.19L73.33,26.77L74.52,20.96C74.61,20.54 74.44,20.13 74.1,19.9L69.14,16.66L68.78,16.42L68.7,16.01L67.58,10.2C67.5,9.78 67.19,9.47 66.78,9.39L60.96,8.27L60.55,8.19L60.31,7.83L57.06,2.87C56.88,2.59 56.57,2.43 56.24,2.43C56.17,2.43 56.09,2.44 56.02,2.45L50.23,3.64L49.82,3.73L49.47,3.49L44.56,0.18C44.38,0.06 44.19,0 43.98,0C43.95,0 43.91,0 43.88,0C43.73,0.02 43.57,0.08 43.44,0.17L38.52,3.49L38.18,3.73L37.76,3.64L31.95,2.45C31.87,2.44 31.79,2.43 31.72,2.43C31.39,2.43 31.08,2.59 30.89,2.87L27.64,7.83L27.41,8.19L27,8.27L21.19,9.39C20.77,9.47 20.46,9.78 20.38,10.19L19.26,16.01L19.18,16.42L18.82,16.66L13.86,19.91C13.52,20.13 13.35,20.54 13.44,20.95L14.63,26.77L14.72,27.19L14.48,27.53L11.17,32.44C10.93,32.79 10.93,33.23 11.17,33.57L14.48,38.48L14.72,38.83L14.63,39.24L13.44,45.02C13.35,45.44 13.52,45.85 13.86,46.08L16.67,47.92L17.5,48.46L16.96,49.3L0.15,75.45C-0.13,75.91 0,76.53 0.46,76.83C0.62,76.93 0.81,76.98 1,76.98C1.06,76.98 1.13,76.98 1.2,76.96L14.36,74.34L15.27,74.16L15.52,75.04L19.02,87.26C19.14,87.72 19.54,88.02 19.99,88.02C20.08,88.02 20.16,88.01 20.25,87.99C20.5,87.92 20.72,87.76 20.85,87.53L35.48,63.15L35.71,62.77L36.13,62.68L37.76,62.34L38.17,62.25L38.52,62.49L43.43,65.8C43.62,65.94 43.81,66 44.02,66.01C44.18,66 44.37,65.94 44.54,65.82L49.47,62.49L49.82,62.25L50.23,62.34L51.86,62.68L52.28,62.77L52.51,63.15L67.13,87.52C67.32,87.84 67.64,88.02 68,88.02C68.18,88.02 68.35,87.98 68.51,87.88C68.74,87.75 68.9,87.54 68.97,87.28L72.47,75.04L72.73,74.16L73.63,74.34L86.78,76.96C86.86,76.98 86.93,76.99 87,76.99C87.47,76.99 87.88,76.65 87.97,76.19C88.03,75.93 87.98,75.67 87.84,75.45"/>
</svg>