<svg xmlns="http://www.w3.org/2000/svg" width="14" height="18" viewBox="0 0 266.2 350">
	<style type="text/css">
		.st0{fill:#00B5AB;}
	</style>
	<path class="st0" d="M133.1,171.17C172.01,171.17 203.56,132.85 203.56,85.58C203.56,38.31 193.2,0 133.1,0C72.99,0 62.63,38.31 62.63,85.58C62.63,132.85 94.18,171.17 133.1,171.17"/>
	<path class="st0" d="M0.01,301.85C0,298.97 -0.01,301.04 0.01,301.85"/>
	<path class="st0" d="M266.18,304.1C266.22,303.31 266.2,298.63 266.18,304.1"/>
	<path class="st0" d="M266.03,298.39C264.73,216.05 253.98,192.59 171.68,177.74C171.68,177.74 160.1,192.5 133.1,192.5C106.1,192.5 94.51,177.74 94.51,177.74C13.12,192.42 1.71,215.54 0.21,295.72C0.09,302.26 0.03,302.61 0.01,301.85C0.01,303.27 0.02,305.91 0.02,310.5C0.02,310.5 19.61,350 133.1,350C246.58,350 266.18,310.5 266.18,310.5C266.18,307.55 266.18,305.5 266.18,304.1C266.16,304.57 266.12,303.66 266.03,298.39"/>
</svg>