<svg xmlns="http://www.w3.org/2000/svg" width="48" height="48" viewBox="0 0 62 62.01">
	<style type="text/css">
		.st0{fill:#FD9B00;}
	</style>
	<path class="st0" d="M60,60.01L18,60.01L18,54.01L18,53.01L18,13.01C18,11.88 17.6,10.85 16.97,10.01L53,10.01C56.85,10.01 60,13.15 60,17.01ZM16,13.01L16,52.01L8.71,52.01C9.51,50.95 10,49.55 10,48.01L10,46.01L10,17.01L10,13.01C10,11.36 11.34,10.01 13,10.01C14.65,10.01 16,11.36 16,13.01M2,48.01L2,15.01C2,14.9 2,6.13 2.01,2.01L44,2.01L44,8.01L13,8.01C10.24,8.01 8,10.25 8,13.01L8,17.01L8,46.01L8,48.01C8,50.22 6.65,52.01 5,52.01C3.34,52.01 2,50.22 2,48.01M53,8.01L46,8.01L46,0.01L1.02,0.01L0.02,0C0,1.32 0,14.88 0,15.01L0,48.01C0,51.32 2.24,54.01 5,54.01L16,54.01L16,62.01L62,62.01L62,17.01C62,12.05 57.96,8.01 53,8.01"/>
	<path class="st0" d="M54 -36L42 -36L42 -24L54 -24ZM40 -38L56 -38L56 -22L40 -22Z"/>
	<path class="st0" d="M36 -36L24 -36L24 -24L36 -24ZM22 -38L38 -38L38 -22L22 -22Z"/>
	<path class="st0" d="M54 -18L42 -18L42 -6L54 -6ZM40 -20L56 -20L56 -4L40 -4Z"/>
	<path class="st0" d="M52 -31L44 -31L44 -29L52 -29Z"/>
	<path class="st0" d="M52 -13L44 -13L44 -11L52 -11Z"/>
	<path class="st0" d="M53,20.01L53,14.01C54.65,14.01 56,15.36 56,17.01C56,18.66 54.65,20.01 53,20.01M29,14.6L29,19.42L24.22,17.01ZM51 14.01L49 14.01L49 20.01L51 20.01ZM31 18.01L47 18.01L47 20.01L31 20.01ZM47 14.01L31 14.01L31 16.01L47 16.01ZM53,12.01L29.7,12.01L19.77,17.01L29.7,22.01L53,22.01C55.75,22.01 58,19.77 58,17.01C58,14.25 55.75,12.01 53,12.01"/>
	<path class="st0" d="M31,28.01L29,28.01L29,31.01L26,31.01L26,33.01L29,33.01L29,36.01L31,36.01L31,33.01L34,33.01L34,31.01L31,31.01Z"/>
	<path class="st0" d="M36 -18L24 -18L24 -6L36 -6ZM22 -20L38 -20L38 -4L22 -4Z"/>
	<path class="st0" d="M32.12,46.47L29.99,48.59L27.87,46.47L26.46,47.89L28.58,50.01L26.46,52.13L27.87,53.54L29.99,51.42L32.12,53.54L33.53,52.13L31.41,50.01L33.53,47.89Z"/>
	<path class="st0" d="M49 -10L47 -10L47 -8L49 -8Z"/>
	<path class="st0" d="M49 -16L47 -16L47 -14L49 -14Z"/>
</svg>