<svg xmlns="http://www.w3.org/2000/svg" width="43" height="59" viewBox="0 0 64.99 89">
	<style type="text/css">
		.st0{fill:#FD9B00;}
	</style>
	<path class="st0" d="M63.04,39.05L63.04,86.53L63.04,87.03L62.54,87.03L29.54,87.03L29.04,87.03L29.04,86.53L29.04,85.37L29.04,39.05L29.04,38.8L29.24,38.65L45.74,26.17L46.04,25.95L46.34,26.17L62.84,38.65L63.04,38.8ZM27.47,37.53C27.23,37.71 27.08,38.01 27.08,38.31L27.08,83.45L27.08,84.1L26.45,83.93L11.77,80.04L11.26,79.91L11.42,79.41L12.12,77.18L12.14,77.12L12.17,77.06C12.22,76.98 12.25,76.91 12.27,76.84L25.77,33.6L25.84,33.37L26.07,33.28L36.75,29.28L39.96,28.08L37.22,30.15ZM10.72,75.08L10.19,74.79L2.73,70.66L2.3,70.42L2.53,69.99L24.55,29.19L24.67,28.97L24.92,28.94L32.18,27.84L36.9,27.13L32.43,28.8L24.71,31.69C24.43,31.8 24.21,32.03 24.12,32.32L10.91,74.5ZM41.64,10.86C41.64,2.65 43.76,1.96 45.94,1.96C48.11,1.96 50.23,2.65 50.23,10.86C50.23,15.63 47.81,20.18 46.36,22.46L45.94,23.13L45.51,22.46C44.07,20.18 41.64,15.63 41.64,10.86M47.75,24.78L47.37,24.49L47.64,24.1C49.34,21.56 52.19,16.46 52.19,10.86C52.19,5.22 51.43,0 45.94,0C40.44,0 39.69,5.22 39.69,10.86C39.69,16.11 42.25,20.96 43.78,23.39L44.18,24.04L43.43,24.15L23.9,27.1C23.6,27.15 23.33,27.33 23.19,27.6L0.11,70.34C-0.13,70.82 0.03,71.42 0.5,71.68L9.77,76.8L10.12,77L10,77.39L9.09,80.3C9.01,80.55 9.04,80.83 9.17,81.07C9.29,81.3 9.52,81.48 9.77,81.55L26.71,86.03L27.08,86.13L27.08,86.51L27.08,88.01C27.08,88.55 27.52,89 28.06,89L64.02,89C64.55,89 64.99,88.55 64.99,88.01L64.99,38.31C64.99,38.01 64.85,37.71 64.6,37.53Z"/>
	<path class="st0" d="M46.04,42.81C44.27,42.81 42.83,41.37 42.83,39.59C42.83,37.82 44.27,36.37 46.04,36.37C47.81,36.37 49.25,37.82 49.25,39.59C49.25,41.37 47.81,42.81 46.04,42.81M46.04,34.41C43.19,34.41 40.87,36.73 40.87,39.59C40.87,42.45 43.19,44.78 46.04,44.78C48.89,44.78 51.2,42.45 51.2,39.59C51.2,36.73 48.89,34.41 46.04,34.41"/>
	<path class="st0" d="M55.64 -33.78L36.44 -33.78L36.44 -31.81L55.64 -31.81Z"/>
	<path class="st0" d="M55.64 -24.38L36.44 -24.38L36.44 -22.41L55.64 -22.41Z"/>
	<path class="st0" d="M55.64 -15.64L36.44 -15.64L36.44 -13.68L55.64 -13.68Z"/>
</svg>