<svg xmlns="http://www.w3.org/2000/svg" width="49" height="44" viewBox="0 0 95.77 84.94">
	<style type="text/css">
		.st0{fill:#FDB33C;}
	</style>
	<path class="st0" d="M24.59,17.81C24.59,16.99 23.91,16.31 23.09,16.31L1.5,16.31C0.67,16.31 0,16.99 0,17.81C0,18.64 0.67,19.31 1.5,19.31L23.09,19.31C23.91,19.31 24.59,18.64 24.59,17.81"/>
	<path class="st0" d="M23.09,38.07L9.5,38.07C8.67,38.07 8,38.75 8,39.57C8,40.4 8.67,41.07 9.5,41.07L23.09,41.07C23.91,41.07 24.59,40.4 24.59,39.57C24.59,38.75 23.91,38.07 23.09,38.07"/>
	<path class="st0" d="M23.09,27.19L5.5,27.19C4.67,27.19 4,27.87 4,28.69C4,29.52 4.67,30.19 5.5,30.19L23.09,30.19C23.91,30.19 24.59,29.52 24.59,28.69C24.59,27.87 23.91,27.19 23.09,27.19"/>
	<path class="st0" d="M92.84,53.4C92.84,53.96 92.4,54.4 91.84,54.4L61.63,54.4C61.08,54.4 60.63,53.96 60.63,53.4L60.63,18.11C60.63,17.56 61.08,17.11 61.63,17.11L73.91,17.11C75.55,17.12 77.02,18.15 77.58,19.68L82.85,34.02C82.98,34.37 83.24,34.66 83.57,34.84L90.72,38.52C92.04,39.19 92.85,40.52 92.84,42ZM92.83,72.2C92.83,72.75 92.38,73.19 91.83,73.19L85.52,73.19C85.41,73.19 85.3,73.21 85.19,73.23C85.12,73.25 85.05,73.25 84.97,73.25C84.52,73.25 84.11,72.94 84,72.48C82.93,67.77 78.8,64.47 73.98,64.47C73.21,64.47 72.44,64.56 71.68,64.73C67.87,65.6 64.84,68.62 63.95,72.42C63.84,72.87 63.44,73.19 62.97,73.19L44.65,73.19C44.19,73.19 43.79,72.87 43.68,72.42C42.59,67.72 38.48,64.44 33.66,64.44C32.89,64.44 32.1,64.53 31.34,64.71C27.53,65.59 24.51,68.62 23.63,72.42C23.52,72.87 23.12,73.19 22.65,73.19L15.91,73.19C15.36,73.19 14.91,72.75 14.91,72.19L14.91,58.4C14.91,57.85 15.36,57.4 15.91,57.4L91.83,57.4C92.1,57.4 92.36,57.51 92.54,57.7C92.73,57.89 92.83,58.14 92.83,58.41ZM79.1,79.86C77.72,81.25 75.89,82 73.94,82L73.91,82C73.86,82 73.81,82 73.76,81.99C69.82,81.89 66.64,78.66 66.64,74.69C66.64,70.67 69.92,67.39 73.94,67.39C77.97,67.39 81.25,70.67 81.25,74.69C81.25,76.65 80.48,78.48 79.1,79.86M33.65,82L33.64,82C33.59,82 33.54,82 33.5,81.99C29.53,81.92 26.33,78.67 26.33,74.69C26.33,70.67 29.61,67.39 33.63,67.39C37.66,67.39 40.93,70.67 40.93,74.69C40.93,78.71 37.67,81.99 33.65,82M92.08,35.85L85.8,32.61C85.57,32.5 85.4,32.3 85.32,32.07L80.38,18.64C79.38,15.95 76.78,14.13 73.91,14.11L61.63,14.11C61.08,14.11 60.63,13.67 60.63,13.11L60.63,1.49C60.63,0.67 59.96,0 59.13,0L13.4,0C12.58,0 11.91,0.67 11.91,1.49L11.91,7.69C11.91,8.52 12.59,9.19 13.41,9.19C14.24,9.19 14.91,8.52 14.91,7.69L14.91,3.98C14.91,3.43 15.36,2.98 15.91,2.98L56.63,2.98C57.19,2.98 57.63,3.43 57.63,3.98L57.63,53.4C57.63,53.96 57.19,54.4 56.63,54.4L15.91,54.4C15.36,54.4 14.91,53.96 14.91,53.4L14.91,49.69C14.91,48.87 14.24,48.19 13.41,48.19C12.59,48.19 11.91,48.87 11.91,49.69L11.91,74.69C11.91,75.52 12.59,76.19 13.41,76.19L22.65,76.19C23.12,76.19 23.52,76.52 23.63,76.97C24.72,81.66 28.83,84.94 33.64,84.94C34.42,84.94 35.21,84.86 35.97,84.68C39.78,83.8 42.8,80.77 43.68,76.97C43.79,76.52 44.19,76.19 44.65,76.19L62.91,76.19C63.38,76.19 63.78,76.51 63.89,76.97C64.98,81.65 69.1,84.91 73.9,84.91C74.69,84.91 75.48,84.82 76.25,84.64C80.05,83.75 83.07,80.72 83.94,76.91C84.05,76.45 84.46,76.13 84.91,76.13C84.99,76.13 85.06,76.14 85.13,76.16C85.24,76.18 85.35,76.19 85.46,76.19L94.26,76.19C95.09,76.19 95.76,75.52 95.76,74.69L95.76,41.99C95.78,39.4 94.37,37.05 92.08,35.85"/>
</svg>