<svg xmlns="http://www.w3.org/2000/svg" width="86.73" height="75.73" viewBox="0 0 86.73 75.73">
	<style type="text/css">
		.st0{fill:#ffffff;}
	</style>
	<path class="st0" d="M71.38,33.89C71.2,33.89 71.04,33.87 70.86,33.87C70.67,33.87 70.51,33.89 70.33,33.89Z"/>
	<path class="st0" d="M15.83,62.86C15.64,62.86 15.47,62.84 15.29,62.84C15.12,62.84 14.96,62.86 14.78,62.86Z"/>
	<path class="st0" d="M60.79,26.68L70.19,8.51L81.71,26.68ZM26.49,55.45L5.57,55.45L14.84,37.89ZM86.73,26.67L69.33,0L44.06,14.79L44.06,2.76L40.7,2.76L40.7,16.75L12.17,33.21L0,55.45C0,55.45 2.93,62.64 15.29,62.84C27.7,62.64 31.68,55.42 31.68,55.42L19.18,36.17L40.7,23.26L40.7,63.29C40.7,63.29 23.88,66.98 23.88,75.73L60.87,75.73C60.87,66.98 44.06,63.29 44.06,63.29L44.06,21.24L65.49,8.38L55.43,26.68C55.43,26.68 58.48,33.68 70.86,33.87C83.23,33.68 86.73,26.67 86.73,26.67"/>
</svg>